<?xml version="1.0" standalone="no"?>
<!DOCTYPE svg PUBLIC "-//W3C//DTD SVG 20010904//EN"
 "http://www.w3.org/TR/2001/REC-SVG-20010904/DTD/svg10.dtd">
<svg version="1.0" xmlns="http://www.w3.org/2000/svg"
 width="2048.000000pt" height="2048.000000pt" viewBox="0 0 2048.000000 2048.000000"
 preserveAspectRatio="xMidYMid meet">

<g transform="translate(0.000000,2048.000000) scale(0.100000,-0.100000)"
fill="#000000" stroke="none">
<path d="M13180 15035 c-15 -19 -98 -43 -173 -50 -40 -5 -66 -14 -86 -30 -33
-29 -73 -45 -107 -45 -29 0 -94 -31 -113 -54 -7 -9 -31 -21 -52 -26 -21 -6
-52 -23 -70 -37 -17 -15 -54 -37 -82 -50 -28 -13 -57 -33 -64 -43 -8 -11 -28
-27 -46 -37 -17 -9 -50 -35 -73 -58 -23 -24 -55 -46 -73 -50 -21 -4 -37 -17
-47 -37 -8 -16 -31 -36 -50 -44 -19 -8 -34 -21 -34 -29 0 -29 -23 -64 -50 -75
-18 -8 -36 -30 -55 -71 -16 -33 -37 -67 -46 -75 -10 -9 -21 -29 -24 -44 -3
-15 -23 -44 -45 -63 -22 -21 -45 -56 -55 -84 -10 -26 -27 -56 -38 -66 -10 -9
-28 -50 -38 -90 -11 -39 -28 -83 -39 -97 -30 -37 -40 -65 -60 -170 -10 -52
-24 -107 -30 -121 -8 -19 -9 -32 -2 -45 7 -13 5 -24 -8 -43 -13 -17 -23 -59
-30 -126 -10 -93 -13 -102 -41 -125 -29 -24 -31 -31 -45 -155 -12 -104 -21
-143 -45 -193 -26 -55 -31 -79 -39 -191 -6 -101 -13 -137 -30 -172 -19 -36
-21 -48 -12 -72 10 -25 8 -31 -14 -51 -19 -16 -29 -39 -39 -94 -8 -40 -23 -85
-34 -100 -24 -35 -37 -84 -51 -201 -7 -61 -17 -103 -29 -120 -22 -31 -38 -102
-50 -224 -7 -75 -13 -93 -35 -116 -20 -20 -31 -53 -50 -136 -13 -61 -36 -132
-50 -160 -16 -31 -29 -81 -36 -130 -20 -156 -28 -203 -43 -232 -22 -41 -46
-140 -58 -235 -5 -44 -18 -95 -27 -112 -24 -44 -25 -365 -1 -411 9 -16 19 -45
23 -64 8 -46 33 -84 133 -204 110 -132 239 -265 331 -338 71 -57 107 -70 129
-48 7 7 28 2 73 -21 34 -17 95 -38 135 -45 104 -20 148 -40 170 -78 19 -33
185 -200 307 -309 54 -48 69 -68 73 -97 4 -20 15 -56 26 -81 18 -42 20 -63 20
-225 0 -45 10 -47 60 -15 25 16 67 36 93 44 l48 15 -21 -20 c-29 -27 -27 -34
18 -85 21 -25 42 -56 45 -70 4 -14 21 -47 39 -73 18 -25 38 -63 46 -83 11 -28
22 -38 52 -47 26 -8 67 -39 127 -99 49 -48 105 -99 123 -113 20 -16 40 -45 50
-71 14 -42 14 -48 -6 -109 -11 -36 -33 -80 -47 -99 -43 -56 -45 -84 -9 -109
16 -12 33 -32 36 -44 4 -12 18 -38 32 -59 29 -42 57 -141 49 -173 -3 -11 -26
-36 -51 -54 -26 -18 -50 -43 -55 -55 -4 -11 -31 -59 -59 -106 -28 -47 -51 -92
-51 -102 0 -9 14 -47 31 -85 17 -37 46 -126 64 -198 30 -117 36 -130 55 -128
15 2 28 -10 50 -45 19 -30 49 -58 82 -78 l53 -32 33 29 c36 32 49 34 104 19
25 -7 47 -24 65 -48 15 -20 43 -54 61 -76 19 -21 40 -54 48 -73 8 -19 32 -52
52 -72 20 -20 48 -55 62 -76 14 -21 40 -53 58 -70 22 -21 42 -58 59 -106 14
-41 35 -86 48 -100 12 -15 32 -54 45 -89 13 -34 33 -68 45 -76 18 -12 23 -27
28 -85 5 -53 15 -91 43 -148 20 -42 41 -104 47 -138 6 -35 14 -63 18 -63 4 0
39 42 79 93 162 209 269 341 351 431 25 28 53 62 62 76 16 23 326 350 422 445
502 495 476 467 469 500 -3 16 -20 52 -37 80 -28 43 -31 57 -29 105 3 49 1 58
-23 80 -15 14 -33 37 -41 52 -8 15 -27 34 -43 43 -20 10 -35 30 -47 62 -9 27
-30 60 -45 74 -15 15 -34 42 -42 60 -8 19 -28 49 -45 67 -28 31 -60 118 -63
172 -1 14 2 44 6 66 6 37 4 45 -24 75 -111 121 -115 127 -116 188 0 68 16 96
85 149 47 36 49 39 49 88 1 48 4 54 50 96 33 31 53 59 60 85 7 26 24 50 50 71
21 17 42 44 46 59 10 43 44 92 73 107 15 8 50 17 79 21 29 4 65 17 83 30 37
27 119 42 148 26 12 -6 24 -20 27 -31 4 -11 21 -27 38 -36 18 -9 48 -31 67
-50 73 -72 121 -104 158 -105 69 -2 97 2 162 24 48 16 87 21 150 20 98 -2 125
10 135 58 4 17 18 48 32 68 14 20 47 79 73 133 26 53 61 116 78 140 41 60 92
253 92 351 0 41 -7 94 -15 117 -35 98 -7 203 63 239 41 21 89 78 118 141 29
61 39 234 26 423 -11 149 -15 174 -37 211 -17 29 -29 74 -40 146 -19 133 -34
200 -50 225 -21 34 -42 148 -50 267 -3 40 -15 94 -29 130 -14 35 -34 101 -45
148 -11 47 -29 105 -39 130 -11 25 -25 83 -31 129 -6 47 -17 94 -24 105 -31
48 -59 148 -72 262 -8 76 -21 139 -34 167 -12 25 -27 90 -35 144 -8 58 -22
113 -34 134 -11 21 -32 97 -46 175 -22 121 -29 141 -55 168 -33 34 -56 112
-47 161 7 40 -8 102 -32 128 -14 16 -23 49 -31 117 -16 121 -26 161 -50 192
-23 29 -51 141 -51 202 0 30 -8 55 -26 81 -16 25 -32 72 -45 139 -16 81 -25
105 -45 122 -14 11 -36 45 -50 75 -14 30 -36 65 -49 79 -13 14 -29 45 -35 70
-6 25 -24 59 -40 75 -15 17 -35 45 -44 62 -9 18 -30 43 -47 55 -17 13 -42 44
-55 70 -14 27 -37 54 -53 62 -16 9 -38 28 -49 43 -23 32 -74 36 -116 8 -41
-27 -106 -124 -106 -157 0 -29 -23 -83 -37 -90 -15 -6 -45 -76 -38 -88 4 -6
-7 -31 -24 -55 -17 -23 -36 -63 -43 -89 -7 -25 -16 -46 -20 -46 -4 0 -8 -12
-8 -27 0 -33 -31 -88 -57 -101 -10 -6 -24 -27 -32 -49 -8 -21 -22 -50 -33 -65
-11 -16 -16 -28 -13 -28 4 0 -1 -7 -9 -16 -9 -8 -16 -26 -16 -39 0 -13 -7 -30
-15 -39 -8 -8 -15 -20 -15 -26 0 -6 -4 -9 -8 -6 -5 3 -19 -26 -32 -64 -13 -38
-33 -80 -44 -92 -12 -12 -26 -31 -31 -42 -13 -26 -75 -68 -91 -62 -13 5 -27
-42 -39 -127 -12 -80 -26 -60 -60 88 -6 26 -8 27 -16 12 -6 -9 -15 -17 -20
-17 -6 0 -7 5 -4 10 4 6 -11 10 -39 10 -40 0 -47 -3 -61 -30 -21 -41 -57 -40
-101 4 -19 19 -34 42 -34 52 0 11 -9 33 -20 49 -11 17 -20 36 -20 43 0 14 -49
89 -73 114 -7 7 -26 38 -43 68 -16 30 -45 70 -64 90 -92 92 -180 220 -151 220
6 0 8 6 5 14 -7 19 -34 9 -32 -12 4 -54 -6 -62 -93 -68 -52 -4 -56 -3 -67 22
-7 14 -9 30 -6 35 10 17 -35 57 -70 63 -20 4 -38 15 -45 30 -11 20 -9 28 13
60 24 36 25 40 10 67 -8 16 -18 29 -22 29 -5 0 -19 -29 -31 -65 -25 -69 -83
-155 -105 -155 -37 0 -20 84 25 130 22 22 29 35 23 48 -4 9 -6 20 -6 25 1 4
-4 7 -12 7 -8 0 -17 8 -20 18 -3 9 -16 28 -29 42 -46 51 -47 68 -4 114 34 37
38 45 33 81 -6 53 -26 97 -79 177 -26 39 -2 37 49 -3 48 -38 99 -108 119 -165
8 -24 22 -64 31 -89 12 -35 20 -44 37 -43 12 0 29 -1 37 -3 11 -3 17 9 24 43
9 47 9 49 -27 83 -21 20 -37 45 -37 55 0 11 -7 20 -15 20 -8 0 -15 7 -15 15 0
8 -4 15 -10 15 -19 0 -61 104 -75 185 -3 22 -28 85 -55 140 -26 55 -51 120
-54 144 -3 24 -8 46 -11 49 -3 3 -1 10 4 16 4 6 11 26 14 44 l7 32 -64 0 c-44
0 -67 -5 -76 -15z m-790 -1415 c33 -22 -31 -39 -75 -20 -23 9 -12 15 55 29 3
0 12 -4 20 -9z m-162 -72 c19 -16 15 -28 -13 -38 -14 -5 -51 -29 -83 -52 -31
-24 -67 -47 -79 -53 -11 -5 -36 -30 -55 -54 -18 -25 -38 -46 -45 -48 -23 -8
-45 55 -38 111 10 81 23 105 72 130 39 19 56 22 136 18 51 -2 98 -9 105 -14z
m1860 -532 c4 -16 14 -32 22 -36 56 -26 55 -24 63 -111 8 -96 28 -173 57 -222
11 -18 31 -87 44 -153 27 -132 33 -152 52 -174 7 -8 20 -53 28 -100 8 -47 22
-125 31 -175 19 -103 20 -124 10 -218 -7 -61 -6 -70 13 -90 12 -12 32 -52 46
-87 l24 -65 52 -5 c70 -8 90 -32 90 -111 0 -57 1 -59 39 -84 21 -14 43 -36 49
-49 8 -18 22 -25 55 -30 48 -7 81 3 145 47 135 91 148 97 208 97 40 0 71 6 95
19 l37 20 18 -41 c10 -23 31 -58 46 -80 24 -33 27 -44 21 -81 -3 -23 -14 -60
-24 -82 -28 -60 -24 -155 6 -155 6 0 20 -9 30 -20 17 -18 17 -27 6 -107 -7
-49 -23 -131 -36 -183 -13 -52 -29 -132 -35 -176 -7 -57 -21 -102 -45 -149
-18 -37 -37 -85 -40 -107 -4 -22 -19 -54 -35 -71 -15 -18 -35 -48 -45 -67 -20
-40 -26 -47 -167 -188 -57 -57 -116 -110 -133 -119 -16 -8 -48 -32 -70 -54
-22 -21 -57 -45 -77 -53 -30 -13 -39 -24 -48 -56 -6 -21 -15 -42 -20 -45 -12
-7 -2 -111 13 -140 6 -11 16 -24 23 -30 11 -8 9 -19 -7 -55 -27 -59 -23 -151
8 -182 l21 -21 16 31 c21 40 20 120 0 172 -9 23 -14 44 -10 47 3 3 27 6 53 5
27 0 80 -1 120 -2 l72 -1 11 -37 c14 -52 14 -52 -25 -88 -25 -23 -35 -40 -35
-62 0 -49 -17 -80 -52 -98 -45 -23 -48 -30 -45 -100 2 -57 -1 -64 -36 -109
-20 -27 -42 -67 -47 -89 -6 -23 -21 -63 -34 -91 -14 -27 -34 -98 -45 -157 -11
-58 -29 -124 -40 -145 -19 -38 -44 -150 -62 -281 -4 -34 -13 -70 -18 -79 -5
-10 -6 -24 -2 -33 17 -32 32 -145 26 -189 -8 -57 -12 -64 -52 -84 -17 -9 -34
-26 -38 -37 -4 -11 -29 -32 -56 -45 -54 -28 -54 -27 -38 -93 15 -60 22 -69 63
-76 42 -8 112 -87 145 -161 12 -27 33 -66 46 -85 37 -54 59 -212 52 -376 -7
-171 -17 -196 -89 -219 -99 -33 -123 -62 -69 -85 58 -24 65 -40 52 -127 -10
-70 -14 -81 -43 -103 -18 -14 -42 -35 -54 -47 -26 -28 -48 -29 -84 -3 -23 17
-36 19 -67 12 -21 -4 -82 -5 -136 -2 -125 6 -127 9 -127 139 0 72 5 105 18
131 l17 35 -51 47 c-68 63 -87 105 -80 171 3 29 10 119 16 202 10 147 20 200
46 240 7 11 24 61 39 110 24 85 43 115 71 115 19 0 44 41 44 70 0 54 -21 74
-95 91 -66 14 -71 18 -93 57 -13 22 -32 44 -42 47 -11 4 -23 18 -27 33 -10 37
-8 124 4 148 17 31 -26 187 -61 223 -25 26 -30 43 -42 137 -13 97 -18 114 -54
169 -21 33 -46 76 -55 95 -9 19 -25 51 -36 70 -10 19 -19 44 -19 55 -1 11 -6
29 -13 40 -16 28 -144 145 -157 145 -12 0 -25 28 -40 88 -8 33 -20 48 -50 67
-37 23 -44 24 -86 14 -38 -10 -48 -9 -55 2 -10 17 -10 47 0 74 6 14 0 28 -25
53 -19 19 -36 43 -39 53 -4 11 -12 19 -20 19 -12 0 -25 29 -25 57 0 20 37 25
75 9 20 -9 76 -18 125 -22 l89 -7 11 29 c7 19 8 35 1 49 -5 11 -12 40 -15 65
-9 81 -117 170 -206 170 -17 0 -44 13 -70 35 -23 19 -59 39 -81 45 -22 6 -57
26 -77 44 -20 18 -56 43 -78 54 -23 12 -44 28 -48 37 -3 9 -22 23 -42 31 -45
19 -88 64 -120 126 -13 26 -31 51 -40 56 -16 9 -62 84 -104 170 -18 35 -22 62
-21 139 0 90 -2 96 -26 119 -14 13 -30 24 -34 24 -12 0 -11 47 1 70 10 19 11
18 45 -4 19 -13 56 -27 82 -30 26 -4 67 -17 89 -28 36 -19 49 -20 90 -12 27 5
48 14 47 19 -1 6 -25 17 -54 25 -40 12 -57 23 -69 45 -9 16 -35 41 -57 55 -98
61 -170 117 -253 199 -80 80 -89 92 -96 136 -4 29 -3 55 4 64 13 20 47 16 80
-9 28 -23 33 -20 52 30 7 19 26 52 42 73 28 35 29 42 23 95 -6 51 -4 60 15 77
28 26 117 26 156 0 24 -15 26 -21 20 -58 -4 -23 -20 -64 -36 -92 -28 -50 -28
-50 -9 -73 l19 -24 21 36 c28 47 54 54 87 23 15 -13 38 -30 52 -38 30 -16 148
-17 174 -2 20 11 63 65 94 118 9 17 36 48 60 71 48 45 59 74 68 183 6 64 11
81 35 109 16 18 29 39 29 47 0 21 -36 55 -59 55 -10 0 -38 16 -62 35 -24 19
-57 37 -74 41 -16 3 -44 14 -62 24 -29 17 -45 18 -155 11 -68 -5 -130 -4 -139
0 -22 11 -88 112 -100 152 -5 18 -12 93 -15 167 -3 74 -14 178 -24 230 -25
126 -32 248 -21 340 6 55 9 63 10 33 1 -42 27 -123 40 -123 31 -2 73 -106 95
-232 4 -21 13 -43 20 -50 7 -7 29 -45 50 -85 21 -40 48 -79 61 -87 12 -8 26
-27 29 -43 4 -15 14 -38 21 -49 13 -20 18 -21 61 -11 50 12 49 13 115 -70 21
-28 67 -7 51 23 -6 11 -15 46 -21 78 -7 36 -20 69 -33 83 -18 19 -23 41 -29
111 -4 48 -13 129 -20 180 -14 97 -5 237 22 347 7 28 16 67 21 89 5 21 12 36
15 32 3 -3 14 -58 24 -123 15 -92 28 -136 59 -200 22 -44 40 -84 40 -88 0 -23
110 -227 141 -261 20 -23 40 -55 44 -72 7 -34 29 -57 44 -48 5 4 21 31 35 61
14 30 30 55 36 55 5 0 26 -24 45 -54 19 -29 41 -56 48 -59 8 -3 25 -24 38 -47
17 -29 32 -43 52 -47 16 -3 38 -19 50 -34 l21 -29 27 30 c35 38 62 38 88 1 11
-16 73 -82 137 -147 84 -87 123 -134 140 -173 22 -48 26 -53 39 -40 24 24 28
124 11 284 -11 105 -21 162 -35 190 -18 35 -22 73 -31 337 -8 216 -16 325 -30
400 -21 106 -26 202 -13 235 6 13 10 7 16 -27 4 -25 11 -58 15 -74z m750 -413
c17 -42 32 -140 32 -202 0 -36 11 -87 30 -140 26 -75 28 -90 19 -133 -12 -52
-54 -98 -92 -98 -42 0 -96 48 -122 107 -31 70 -31 73 4 107 35 34 46 74 61
231 7 66 17 128 22 138 13 25 34 21 46 -10z m340 -275 c16 -64 31 -330 20
-350 -10 -21 -50 -23 -97 -7 -37 13 -47 28 -56 90 -6 42 -4 49 23 80 21 24 34
53 41 92 5 31 17 70 26 86 8 17 15 37 15 46 0 29 17 6 28 -37z m181 -113 c12
-31 21 -59 21 -64 0 -5 8 -19 19 -32 14 -19 20 -49 24 -134 4 -60 3 -126 -1
-145 -7 -33 -9 -35 -47 -32 -50 4 -73 19 -120 77 l-38 46 21 19 c28 26 62 143
62 213 0 59 13 107 29 107 5 0 19 -25 30 -55z m-3134 -97 c8 -18 19 -53 25
-77 6 -24 22 -53 34 -65 13 -11 38 -48 55 -81 17 -33 42 -74 55 -92 13 -18 26
-55 30 -84 6 -45 4 -55 -15 -75 -18 -19 -33 -24 -75 -24 -60 0 -67 6 -93 81
-10 30 -28 72 -39 94 -37 71 -54 293 -26 333 21 30 32 28 49 -10z m-65 -665
c14 -34 37 -75 52 -90 25 -27 26 -29 11 -56 -12 -24 -19 -28 -41 -22 -76 19
-100 55 -101 156 -2 99 41 106 79 12z m3010 -1788 c20 -24 -5 -45 -55 -45 -65
0 -69 41 -5 53 44 8 47 7 60 -8z m-2828 -222 c14 -3 36 -15 48 -28 18 -19 20
-27 11 -65 -14 -62 -22 -66 -72 -33 -49 31 -78 62 -79 81 0 26 32 63 49 56 9
-4 28 -9 43 -11z m375 -125 c-3 -8 -6 -5 -6 6 -1 11 2 17 5 13 3 -3 4 -12 1
-19z m253 -253 c0 -8 -4 -15 -10 -15 -5 0 -10 7 -10 15 0 8 5 15 10 15 6 0 10
-7 10 -15z"/>
<path d="M13131 11934 c0 -11 3 -14 6 -6 3 7 2 16 -1 19 -3 4 -6 -2 -5 -13z"/>
<path d="M15223 11028 c-22 -28 -22 -37 -2 -62 20 -26 22 -26 40 -10 11 10 19
30 19 51 0 28 -3 33 -24 33 -13 0 -28 -6 -33 -12z"/>
<path d="M14261 7490 c-18 -4 -40 -15 -48 -23 -13 -13 -13 -18 2 -46 9 -18 27
-36 39 -41 26 -10 49 -63 46 -107 -3 -44 -1 -55 10 -48 6 3 10 35 10 71 0 36
5 85 11 110 9 33 9 52 1 70 -12 25 -18 27 -71 14z"/>
<path d="M14271 7044 c-29 -36 -41 -84 -48 -189 -3 -49 -12 -102 -20 -118 -12
-23 -11 -40 1 -118 8 -51 19 -96 23 -100 5 -5 44 14 86 42 58 38 75 55 67 64
-26 31 -42 117 -46 245 -6 165 -11 200 -29 200 -7 0 -23 -12 -34 -26z"/>
<path d="M16058 13715 c-19 -42 35 -100 59 -62 13 21 12 41 -3 65 -19 29 -42
28 -56 -3z"/>
<path d="M16153 13622 c-8 -5 -8 -22 -1 -59 13 -64 28 -60 28 7 0 50 -7 64
-27 52z"/>
<path d="M16246 13352 c-15 -24 -17 -100 -6 -174 18 -111 25 -123 39 -59 15
71 14 123 -5 187 -16 55 -19 60 -28 46z"/>
<path d="M16324 12985 c-4 -10 3 -59 15 -109 12 -50 26 -147 31 -216 9 -140
13 -154 47 -191 23 -25 25 -39 34 -170 8 -131 12 -150 40 -205 19 -38 34 -87
39 -129 6 -48 15 -74 31 -91 12 -13 26 -24 30 -24 16 0 51 109 59 182 8 85 6
105 -16 155 -8 17 -14 35 -14 39 0 4 -9 26 -19 48 -11 23 -24 83 -30 139 -7
59 -19 112 -31 135 -45 86 -51 108 -66 249 -17 161 -25 178 -77 185 -18 3 -40
8 -49 13 -12 5 -20 2 -24 -10z"/>
<path d="M16330 8110 c0 -22 5 -40 10 -40 6 0 10 18 10 40 0 22 -4 40 -10 40
-5 0 -10 -18 -10 -40z"/>
<path d="M16330 7990 c-6 -11 -14 -19 -18 -19 -40 6 -41 -14 -3 -63 27 -37 29
-37 45 -19 21 24 28 71 11 71 -15 0 -28 28 -19 41 3 5 3 9 0 9 -3 0 -10 -9
-16 -20z"/>
<path d="M12690 6644 c-19 -12 -41 -23 -47 -23 -7 -1 -13 -11 -13 -22 0 -19 4
-21 49 -16 27 3 59 10 70 17 23 12 20 30 -4 30 -9 0 -12 6 -9 15 4 8 11 12 18
8 6 -3 7 -2 3 2 -14 16 -31 13 -67 -11z"/>
<path d="M12453 5735 c0 -27 2 -38 4 -22 2 15 2 37 0 50 -2 12 -4 0 -4 -28z"/>
</g>
</svg>
